<svg width="1024" xmlns="http://www.w3.org/2000/svg" height="173" id="screenshot-7549d690-0ad5-80fd-8008-463173884ef3" viewBox="0 0 1024 173" xmlns:xlink="http://www.w3.org/1999/xlink" fill="none" version="1.1"><g id="shape-7549d690-0ad5-80fd-8008-463173884ef3"><defs><clipPath id="frame-clip-7549d690-0ad5-80fd-8008-463173884ef3-render-1" class="frame-clip frame-clip-def"><rect rx="0" ry="0" x="0" y="0" width="1024" height="173" transform="matrix(1.000000, 0.000000, 0.000000, 1.000000, 0.000000, 0.000000)"/></clipPath></defs><g class="frame-container-wrapper"><g class="frame-container-blur"><g class="frame-container-shadows"><g clip-path="url(#frame-clip-7549d690-0ad5-80fd-8008-463173884ef3-render-1)" fill="none"><g class="fills" id="fills-7549d690-0ad5-80fd-8008-463173884ef3"><rect width="1024" height="173" class="frame-background" x="0" transform="matrix(1.000000, 0.000000, 0.000000, 1.000000, 0.000000, 0.000000)" style="fill: rgb(15, 23, 43); fill-opacity: 1;" ry="0" rx="0" y="0"/></g><g class="frame-children"><g id="shape-7549d690-0ad5-80fd-8008-463173884ef4" rx="0" ry="0" style="fill: rgb(0, 0, 0);"><g id="shape-7549d690-0ad5-80fd-8008-463173884ef5"><g class="fills" id="fills-7549d690-0ad5-80fd-8008-463173884ef5"><path d="M3.88330078125,3.036376953125L0,33.616943359375L16.822265625,33.616943359375L16.822265625,79.48876953125L53.9169921875,79.48876953125L53.9169921875,3.036376953125L37.52734375,3.036376953125L16.822265625,3.036376953125ZM67.484375,3.036376953125L63.607421875,33.616943359375L82.515625,33.616943359375L82.80078125,34.261962890625C79.20849609375,38.570068359375,76.908203125,43.02099609375,75.90185546875,47.616455078125C74.892578125,52.21044921875,74.38671875,57.235595703125,74.38671875,62.69091796875L74.38671875,133.544921875L111.484375,133.544921875L111.484375,51.059814453125C111.484375,45.1728515625,111.69921875,41.0830078125,112.12890625,38.786865234375C112.70556640625,36.34619140625,113.35595703125,34.62158203125,114.07373046875,33.616943359375L132.40185546875,33.616943359375L140.81591796875,33.616943359375C146.134765625,33.616943359375,150.23291015625,35.051513671875,153.107421875,37.923583984375C156.12890625,40.7939453125,157.63818359375,45.105224609375,157.63818359375,50.847900390625L157.63818359375,133.544921875L194.73291015625,133.544921875L194.73291015625,50.201171875C194.73291015625,34.552490234375,190.349609375,22.77685546875,181.57666015625,14.881103515625C172.8095703125,6.985107421875,159.8681640625,3.036376953125,142.75439453125,3.036376953125L132.40185546875,3.036376953125L81.9384765625,3.036376953125ZM203,3.036376953125L199.11669921875,33.616943359375L242.90478515625,33.616943359375C248.220703125,33.616943359375,252.31884765625,35.051513671875,255.1962890625,37.923583984375C258.21484375,40.7939453125,259.72412109375,45.105224609375,259.72412109375,50.847900390625L259.72412109375,133.544921875L296.81591796875,133.544921875L296.81591796875,50.201171875C296.81591796875,34.552490234375,292.4326171875,22.77685546875,283.66259765625,14.881103515625C274.8896484375,6.985107421875,261.951171875,3.036376953125,244.84033203125,3.036376953125ZM306.392578125,3.036376953125L306.392578125,33.616943359375L339.134765625,33.616943359375C331.9296875,36.865234375,326.478515625,40.597412109375,322.78515625,44.815185546875C318.90185546875,49.26611328125,316.31298828125,54.00732421875,315.0185546875,59.031005859375C313.87109375,64.056396484375,313.29443359375,69.0078125,313.29443359375,73.890625C313.29443359375,77.33544921875,313.435546875,81.42529296875,313.72412109375,86.16357421875C314.1533203125,90.901611328125,314.73291015625,95.927001953125,315.4541015625,101.23974609375C316.171875,106.40625,317.037109375,111.72216796875,318.0400390625,117.177490234375C319.048828125,122.6328125,320.05517578125,127.873046875,321.0615234375,132.89990234375L359.66259765625,132.89990234375C359.23291015625,129.8837890625,358.50927734375,125.573974609375,357.505859375,119.97412109375C356.4970703125,114.2314453125,355.42333984375,108.128173828125,354.27587890625,101.668212890625C353.12255859375,95.20703125,352.04296875,89.03564453125,351.037109375,83.148681640625C350.177734375,77.26318359375,349.60107421875,72.52685546875,349.31298828125,68.937255859375C349.0244140625,64.19921875,349.2392578125,59.60546875,349.9599609375,55.154296875C350.822265625,50.559326171875,352.9755859375,46.39697265625,356.4296875,42.663330078125C360.0244140625,38.93115234375,365.6318359375,35.9130859375,373.24853515625,33.616943359375L377.12890625,3.036376953125ZM382.18408203125,3.036376953125C384.05517578125,5.189697265625,386.5029296875,8.275146484375,389.521484375,12.296142578125C392.68408203125,16.172607421875,396.0615234375,20.482177734375,399.65625,25.220458984375C403.392578125,29.95849609375,406.98779296875,34.62158203125,410.4384765625,39.21533203125C413.3251953125,42.787841796875,415.9326171875,45.992919921875,418.263671875,48.8251953125C411.87744140625,51.265869140625,406.607421875,54.45263671875,402.4599609375,58.384521484375C396.8525390625,63.83984375,392.68408203125,70.086181640625,389.951171875,77.120361328125C387.36181640625,84.15625,385.494140625,91.479248046875,384.34375,99.087890625L379.16552734375,133.544921875L416.048828125,133.544921875L421.005859375,101.456298828125C421.87109375,96.86083984375,422.73291015625,92.408447265625,423.59521484375,88.101806640625C424.4599609375,83.79541015625,425.8955078125,80.0615234375,427.908203125,76.904052734375C429.68701171875,74.180908203125,432.1044921875,72.1396484375,435.1533203125,70.78173828125C436.5830078125,72.758544921875,437.9755859375,74.72607421875,439.34033203125,76.687255859375C445.38037109375,85.157470703125,451.20263671875,94.062744140625,456.8095703125,103.39453125C462.5615234375,112.58349609375,468.59814453125,122.63427734375,474.92626953125,133.544921875L518.0615234375,133.544921875C511.15966796875,122.63427734375,504.11328125,112.078369140625,496.92626953125,101.884765625C491.3466796875,93.818359375,485.77001953125,85.798095703125,480.1962890625,77.82080078125C486.0859375,75.430908203125,491.0859375,72.468505859375,495.20263671875,68.937255859375C501.38037109375,63.48193359375,505.9814453125,57.235595703125,509.0029296875,50.201171875C512.16552734375,43.1669921875,514.1044921875,35.843994140625,514.822265625,28.2353515625L517.4140625,3.036376953125L480.53369140625,3.036376953125L477.72998046875,25.865478515625C477.30078125,30.318115234375,476.57666015625,34.69677734375,475.5703125,39.00341796875C474.564453125,43.31005859375,472.9140625,47.111328125,470.61328125,50.413330078125C469.1533203125,52.417724609375,467.20263671875,54.077880859375,464.75439453125,55.3896484375C461.5,50.572998046875,458.27587890625,45.758056640625,455.0859375,40.941650390625C453.07373046875,37.78369140625,450.4140625,33.904296875,447.107421875,29.308837890625C443.80078125,24.71533203125,440.4169921875,20.05224609375,436.96923828125,15.31396484375C433.66259765625,10.575927734375,430.5703125,6.48291015625,427.693359375,3.036376953125Z" style="fill: rgb(144, 161, 185); fill-opacity: 1;"/></g></g><g id="shape-7549d690-0ad5-80fd-8008-463173884ef6"><g class="fills" id="fills-7549d690-0ad5-80fd-8008-463173884ef6"><path d="M696.40234375,0.00146484375C683.732421875,0.00146484375,673.080078125,1.94921875,664.4453125,5.8515625C655.947265625,9.754150390625,649.5458984375,15.177490234375,645.224609375,22.114990234375C641.052734375,29.05224609375,638.962890625,37.069580078125,638.962890625,46.17578125C638.962890625,57.3046875,641.7734375,66.555419921875,647.38671875,73.92578125C653,81.296630859375,660.484375,85.9208984375,669.84375,87.79931640625C674.162109375,88.8115234375,677.763671875,89.462890625,680.640625,89.75146484375C683.521484375,89.895751953125,686.0400390625,89.822021484375,688.19921875,89.533447265625L691.220703125,62.87060546875C690.21484375,62.87060546875,688.994140625,62.723388671875,687.552734375,62.434326171875C686.25390625,61.999755859375,684.9599609375,61.49755859375,683.662109375,60.918701171875C680.78515625,59.907958984375,678.552734375,58.246337890625,676.96875,55.93310546875C675.38671875,53.475830078125,674.595703125,50.5869140625,674.595703125,47.26171875C674.595703125,42.348388671875,676.24609375,38.375,679.55859375,35.3388671875C682.87109375,32.3037109375,688.484375,30.786376953125,696.40234375,30.786376953125C706.337890625,30.786376953125,713.392578125,33.965576171875,717.5673828125,40.32568359375C721.8828125,46.68408203125,724.0400390625,55.501708984375,724.0400390625,66.773193359375C724.0400390625,74.1455078125,722.751953125,80.57470703125,720.16015625,86.06689453125C717.7119140625,91.414794921875,713.96875,95.5322265625,708.9326171875,98.4228515625C704.037109375,101.3134765625,697.984375,102.758544921875,690.78515625,102.758544921875L642.8525390625,102.758544921875L642.8525390625,133.546630859375L687.1171875,133.546630859375C702.951171875,133.546630859375,716.4140625,130.943359375,727.5,125.739990234375C738.73046875,120.39208984375,747.220703125,112.731201171875,752.9755859375,102.758544921875C758.8828125,92.64208984375,761.833984375,80.6484375,761.833984375,66.773193359375C761.833984375,45.962158203125,756.14453125,29.626953125,744.7734375,17.7744140625C733.3984375,5.923828125,717.275390625,0.00146484375,696.40234375,0.00146484375ZM971.521484375,0.00146484375C965.478515625,0.00146484375,960.1533203125,0.577392578125,955.5458984375,1.734130859375C950.9384765625,2.890625,946.83984375,4.6953125,943.2392578125,7.152587890625C939.640625,9.465576171875,936.4755859375,12.571044921875,933.736328125,16.4736328125C931.0029296875,20.23193359375,928.6259765625,24.8564453125,926.6103515625,30.3486328125L925.3125,30.3486328125L917.9755859375,2.1669921875L880.8310546875,2.1669921875L899.1875,57.015869140625L884.720703125,133.546630859375L923.1533203125,133.546630859375L935.0341796875,64.171630859375C935.8955078125,58.67919921875,936.9755859375,53.907470703125,938.26953125,49.8603515625C939.564453125,45.8134765625,941.294921875,42.420654296875,943.4541015625,39.674560546875C945.61328125,36.783935546875,948.2763671875,34.6875,951.44140625,33.38818359375C954.7548828125,31.94287109375,958.78515625,31.218017578125,963.537109375,31.218017578125C968,31.218017578125,971.95703125,32.518798828125,975.4111328125,35.12060546875C978.8681640625,37.722412109375,981.6015625,41.479248046875,983.619140625,46.39404296875C985.779296875,51.162841796875,986.859375,57.089599609375,986.859375,64.171630859375L986.859375,66.98828125C986.859375,77.393798828125,984.5517578125,85.9931640625,979.9482421875,92.7861328125C975.33984375,99.433349609375,968.9384765625,102.758544921875,960.73046875,102.758544921875L946.693359375,102.758544921875L942.3740234375,133.546630859375L962.6689453125,133.546630859375C975.62890625,133.546630859375,986.640625,130.800537109375,995.7119140625,125.30810546875C1004.92578125,119.671630859375,1011.9052734375,111.8662109375,1016.65625,101.892578125C1021.5517578125,91.777099609375,1024,80.14013671875,1024,66.98828125L1024,64.171630859375C1024,50.731201171875,1021.7666015625,39.23681640625,1017.30078125,29.697509765625C1012.83984375,20.15966796875,1006.650390625,12.861328125,998.7333984375,7.8037109375C990.9599609375,2.60009765625,981.8896484375,0.00146484375,971.521484375,0.00146484375ZM576.478515625,2.1669921875L572.591796875,32.95068359375L589.4326171875,32.95068359375L589.4326171875,173.00146484375L626.576171875,171.049560546875L626.576171875,2.1669921875L614.052734375,2.1669921875L589.4326171875,2.1669921875ZM757.767578125,2.1669921875L821.5244140625,102.758544921875L761.8681640625,102.758544921875L761.8681640625,133.546630859375L865.5185546875,133.546630859375L868.7607421875,111.8662109375L845.193359375,75.529296875C846.87109375,74.626220703125,848.466796875,73.65869140625,849.9755859375,72.625C855.4453125,68.86669921875,859.833984375,64.532470703125,863.14453125,59.61767578125C866.4599609375,54.560302734375,868.9755859375,49.358154296875,870.7021484375,44.01025390625C872.576171875,38.51806640625,873.7978515625,33.099365234375,874.3740234375,27.751708984375L876.9658203125,2.1669921875L840.0400390625,2.1669921875L837.232421875,24.93017578125C836.796875,28.11083984375,836.294921875,31.36376953125,835.7177734375,34.68896484375C835.28515625,38.0126953125,834.494140625,41.188720703125,833.34375,44.223876953125C832.4111328125,46.68408203125,831.1474609375,48.912841796875,829.548828125,50.898681640625L801.1748046875,2.1669921875Z" style="fill: rgb(226, 232, 240); fill-opacity: 1;"/></g></g></g></g></g></g></g></g></g></svg>