<svg width="1024" xmlns="http://www.w3.org/2000/svg" height="1024" id="screenshot-80aebd7f-4b83-8004-8008-4452dd27f73e" viewBox="0 0 1024 1024" xmlns:xlink="http://www.w3.org/1999/xlink" fill="none" version="1.1"><g id="shape-80aebd7f-4b83-8004-8008-4452dd27f73e"><defs><clipPath id="frame-clip-80aebd7f-4b83-8004-8008-4452dd27f73e-render-1" class="frame-clip frame-clip-def"><rect rx="0" ry="0" x="0" y="0" width="1024" height="1024" transform="matrix(1.000000, 0.000000, 0.000000, 1.000000, 0.000000, 0.000000)"/></clipPath></defs><g class="frame-container-wrapper"><g class="frame-container-blur"><g class="frame-container-shadows"><g clip-path="url(#frame-clip-80aebd7f-4b83-8004-8008-4452dd27f73e-render-1)" fill="none"><g class="fills" id="fills-80aebd7f-4b83-8004-8008-4452dd27f73e"><rect rx="0" ry="0" x="0" y="0" width="1024" height="1024" transform="matrix(1.000000, 0.000000, 0.000000, 1.000000, 0.000000, 0.000000)" class="frame-background"/></g><g class="frame-children"><g id="shape-80aebd7f-4b83-8004-8008-4452dd27f73f" rx="0" ry="0"><g id="shape-80aebd7f-4b83-8004-8008-4452dd27f740"><defs><filter id="filter-render-3" x="-0.12573414699774096" y="-0.13744075829383887" width="1.251468293995482" height="1.4116334955347474" filterUnits="objectBoundingBox" color-interpolation-filters="sRGB"><feFlood flood-opacity="0" result="BackgroundImageFix"/><feColorMatrix in="SourceAlpha" type="matrix" values="0 0 0 0 0 0 0 0 0 0 0 0 0 0 0 0 0 0 127 0"/><feOffset dx="0" dy="45.17943009914006"/><feGaussianBlur stdDeviation="15.059810033046688"/><feColorMatrix type="matrix" values="0 0 0 0 0 0 0 0 0 0 0 0 0 0 0 0 0 0 0.2 0"/><feBlend mode="normal" in2="BackgroundImageFix" result="filter_d90d8b22-58c4-801d-8008-35f179eb9d69"/><feBlend mode="normal" in="SourceGraphic" in2="filter_d90d8b22-58c4-801d-8008-35f179eb9d69" result="shape"/></filter><filter id="filter-shadow-render-3" x="-0.12573414699774096" y="-0.13744075829383887" width="1.251468293995482" height="1.4116334955347474" filterUnits="objectBoundingBox" color-interpolation-filters="sRGB"><feFlood flood-opacity="0" result="BackgroundImageFix"/><feColorMatrix in="SourceAlpha" type="matrix" values="0 0 0 0 0 0 0 0 0 0 0 0 0 0 0 0 0 0 127 0"/><feOffset dx="0" dy="45.17943009914006"/><feGaussianBlur stdDeviation="15.059810033046688"/><feColorMatrix type="matrix" values="0 0 0 0 0 0 0 0 0 0 0 0 0 0 0 0 0 0 0.2 0"/><feBlend mode="normal" in2="BackgroundImageFix" result="filter_d90d8b22-58c4-801d-8008-35f179eb9d69"/><feBlend mode="normal" in="SourceGraphic" in2="filter_d90d8b22-58c4-801d-8008-35f179eb9d69" result="shape"/></filter><linearGradient id="fill-color-gradient-render-3-0" x1="0.5" y1="0" x2="0.5" y2="1" gradientTransform=""><stop offset="0" stop-color="#f8fafc" stop-opacity="1"/><stop offset="1" stop-color="#e2e8f0" stop-opacity="1"/></linearGradient><pattern patternUnits="userSpaceOnUse" x="91" y="91" width="844" height="844" id="fill-0-render-3"><g><rect width="844" height="844" style="fill: url(&quot;#fill-color-gradient-render-3-0&quot;); fill-opacity: 1;"/></g></pattern></defs><g class="fills" id="fills-80aebd7f-4b83-8004-8008-4452dd27f740"><rect width="844" height="844" x="91" transform="matrix(1.000000, 0.000000, 0.000000, 1.000000, 0.000000, 0.000000)" ry="188.24762541308357" fill="url(#fill-0-render-3)" rx="188.24762541308357" filter="url(#filter-render-3)" y="91"/></g></g><g id="shape-80aebd7f-4b83-8004-8008-4452dd27f741"><defs><linearGradient id="fill-color-gradient-render-4-0" x1="0.5" y1="0" x2="0.5" y2="1" gradientTransform=""><stop offset="0" stop-color="#1d293d" stop-opacity="1"/><stop offset="1" stop-color="#0f172a" stop-opacity="1"/></linearGradient><pattern patternUnits="userSpaceOnUse" x="204.03571428571377" y="204.03571428571422" width="617.9285714285725" height="617.9285714285716" patternTransform="matrix(1.000000, 0.000000, 0.000000, 1.000000, 0.000000, 0.000000)" id="fill-0-render-4"><g><rect width="617.9285714285725" height="617.9285714285716" style="fill: url(&quot;#fill-color-gradient-render-4-0&quot;);"/></g></pattern></defs><g class="fills" id="fills-80aebd7f-4b83-8004-8008-4452dd27f741"><path d="M807.224609375,494.14794921875L741.9306640625,477.830078125C726.7080078125,377.6630859375,648.0947265625,299.049072265625,547.92578125,283.82666015625L531.611328125,218.65185546875C529.455078125,210.060546875,521.7353515625,204.03564453125,512.87890625,204.03564453125C504.021484375,204.03564453125,496.298828125,210.060546875,494.146484375,218.65185546875L477.8271484375,283.9476318359375C377.662109375,299.16943359375,299.044921875,377.784423828125,283.826171875,477.950439453125L218.650390625,494.268310546875C210.05859375,496.42138671875,204.03515625,504.142822265625,204.03515625,513.00048828125C204.03515625,521.857177734375,210.05859375,529.57861328125,218.650390625,531.731689453125L283.9482421875,548.049560546875C299.1669921875,648.215576171875,377.7841796875,726.830322265625,477.9482421875,742.05224609375L494.267578125,807.34814453125C496.419921875,815.9384765625,504.1396484375,821.96435546875,513,821.96435546875C521.8564453125,821.96435546875,529.576171875,815.9384765625,531.728515625,807.34814453125L548.0478515625,742.05224609375C648.212890625,726.830322265625,726.830078125,648.215576171875,742.0517578125,548.049560546875L807.345703125,531.731689453125C815.9375,529.57861328125,821.96484375,521.857177734375,821.96484375,513.00048828125C821.96484375,504.142822265625,815.9375,496.42138671875,807.345703125,494.268310546875ZM576.72265625,549.4248046875L540.1806640625,512.87939453125L576.72265625,476.333251953125L722.884765625,512.87939453125ZM449.03125,549.4248046875L302.8681640625,512.87939453125L449.0791015625,476.333251953125L485.576171875,512.87939453125ZM700.60546875,467.498291015625L586.7421875,439.014404296875L558.2587890625,325.1517333984375C628.673828125,342.10107421875,683.6572265625,397.081298828125,700.60546875,467.498291015625M549.423828125,449.031982421875L512.87890625,485.578125L476.3330078125,449.031982421875L512.87890625,302.8720703125ZM467.4951171875,325.1517333984375L439.01171875,439.014404296875L325.15234375,467.498291015625C342.099609375,397.081298828125,397.080078125,342.10107421875,467.4951171875,325.1517333984375M325.078125,558.259765625L439.01171875,586.74365234375L467.4951171875,700.6064453125C397.080078125,683.657958984375,342.099609375,628.677734375,325.15234375,558.259765625ZM476.259765625,576.72607421875L512.87890625,540.1806640625L549.423828125,576.72607421875L512.87890625,722.886474609375ZM558.1884765625,700.6064453125L586.671875,586.74365234375L700.53125,558.259765625C683.5947265625,628.657470703125,628.6484375,683.63427734375,558.2587890625,700.6064453125Z" fill="url(#fill-0-render-4)"/></g></g></g></g></g></g></g></g></g></svg>