<svg width="1024" xmlns="http://www.w3.org/2000/svg" height="1024" id="screenshot-e693f32c-a250-80d6-8008-43e152f8826e" viewBox="0 0 1024 1024" xmlns:xlink="http://www.w3.org/1999/xlink" fill="none" version="1.1"><g id="shape-e693f32c-a250-80d6-8008-43e152f8826e"><defs><clipPath id="frame-clip-e693f32c-a250-80d6-8008-43e152f8826e-render-1" class="frame-clip frame-clip-def"><rect rx="0" ry="0" x="0" y="0" width="1024" height="1024" transform="matrix(1.000000, 0.000000, 0.000000, 1.000000, 0.000000, 0.000000)"/></clipPath></defs><g class="frame-container-wrapper"><g class="frame-container-blur"><g class="frame-container-shadows"><g clip-path="url(#frame-clip-e693f32c-a250-80d6-8008-43e152f8826e-render-1)" fill="none"><g class="fills" id="fills-e693f32c-a250-80d6-8008-43e152f8826e"><rect rx="0" ry="0" x="0" y="0" width="1024" height="1024" transform="matrix(1.000000, 0.000000, 0.000000, 1.000000, 0.000000, 0.000000)" class="frame-background"/></g><g class="frame-children"><g id="shape-e693f32c-a250-80d6-8008-43e152f8826f" rx="0" ry="0"><g id="shape-e693f32c-a250-80d6-8008-43e152f88270"><defs><filter id="filter-render-3" x="-0.12573414699774096" y="-0.13744075829383887" width="1.251468293995482" height="1.4116334955347474" filterUnits="objectBoundingBox" color-interpolation-filters="sRGB"><feFlood flood-opacity="0" result="BackgroundImageFix"/><feColorMatrix in="SourceAlpha" type="matrix" values="0 0 0 0 0 0 0 0 0 0 0 0 0 0 0 0 0 0 127 0"/><feOffset dx="0" dy="45.17943009914006"/><feGaussianBlur stdDeviation="15.059810033046688"/><feColorMatrix type="matrix" values="0 0 0 0 0 0 0 0 0 0 0 0 0 0 0 0 0 0 0.2 0"/><feBlend mode="normal" in2="BackgroundImageFix" result="filter_d90d8b22-58c4-801d-8008-35f179eb9d69"/><feBlend mode="normal" in="SourceGraphic" in2="filter_d90d8b22-58c4-801d-8008-35f179eb9d69" result="shape"/></filter><filter id="filter-shadow-render-3" x="-0.12573414699774096" y="-0.13744075829383887" width="1.251468293995482" height="1.4116334955347474" filterUnits="objectBoundingBox" color-interpolation-filters="sRGB"><feFlood flood-opacity="0" result="BackgroundImageFix"/><feColorMatrix in="SourceAlpha" type="matrix" values="0 0 0 0 0 0 0 0 0 0 0 0 0 0 0 0 0 0 127 0"/><feOffset dx="0" dy="45.17943009914006"/><feGaussianBlur stdDeviation="15.059810033046688"/><feColorMatrix type="matrix" values="0 0 0 0 0 0 0 0 0 0 0 0 0 0 0 0 0 0 0.2 0"/><feBlend mode="normal" in2="BackgroundImageFix" result="filter_d90d8b22-58c4-801d-8008-35f179eb9d69"/><feBlend mode="normal" in="SourceGraphic" in2="filter_d90d8b22-58c4-801d-8008-35f179eb9d69" result="shape"/></filter><linearGradient id="fill-color-gradient-render-3-0" x1="0.5" y1="0" x2="0.5" y2="1" gradientTransform=""><stop offset="0" stop-color="#0095e9" stop-opacity="1"/><stop offset="1" stop-color="#1d4ed8" stop-opacity="1"/></linearGradient><pattern patternUnits="userSpaceOnUse" x="91" y="91" width="844" height="844" id="fill-0-render-3"><g><rect width="844" height="844" style="fill: url(&quot;#fill-color-gradient-render-3-0&quot;);"/></g></pattern></defs><g class="fills" id="fills-e693f32c-a250-80d6-8008-43e152f88270"><rect width="844" height="844" x="91" transform="matrix(1.000000, 0.000000, 0.000000, 1.000000, 0.000000, 0.000000)" ry="188.24762541308357" fill="url(#fill-0-render-3)" rx="188.24762541308357" filter="url(#filter-render-3)" y="91"/></g></g><g id="shape-e693f32c-a250-80d6-8008-43e152f88271"><g class="fills" id="fills-e693f32c-a250-80d6-8008-43e152f88271"><path d="M807.22412109375,494.14794921875L741.9305419921875,477.830078125C726.708251953125,377.6630859375,648.0946044921875,299.049072265625,547.92626953125,283.82666015625L531.611083984375,218.65185546875C529.454833984375,210.060546875,521.7352294921875,204.03564453125,512.8785400390625,204.03564453125C504.02197265625,204.03564453125,496.298583984375,210.060546875,494.14599609375,218.65185546875L477.8272705078125,283.9476318359375C377.6624755859375,299.16943359375,299.0452880859375,377.784423828125,283.8267822265625,477.950439453125L218.65087890625,494.268310546875C210.0592041015625,496.42138671875,204.03564453125,504.142822265625,204.03564453125,513.00048828125C204.03564453125,521.857177734375,210.0592041015625,529.57861328125,218.65087890625,531.731689453125L283.947998046875,548.049560546875C299.166748046875,648.215576171875,377.783935546875,726.830322265625,477.948486328125,742.05224609375L494.2674560546875,807.34814453125C496.419921875,815.9384765625,504.1396484375,821.96435546875,513,821.96435546875C521.8565673828125,821.96435546875,529.576416015625,815.9384765625,531.7288818359375,807.34814453125L548.0477294921875,742.05224609375C648.2122802734375,726.830322265625,726.82958984375,648.215576171875,742.0518798828125,548.049560546875L807.345703125,531.731689453125C815.937255859375,529.57861328125,821.96435546875,521.857177734375,821.96435546875,513.00048828125C821.96435546875,504.142822265625,815.937255859375,496.42138671875,807.345703125,494.268310546875ZM576.722412109375,549.4248046875L540.1807861328125,512.87939453125L576.722412109375,476.333251953125L722.8851318359375,512.87939453125ZM449.031005859375,549.4248046875L302.868408203125,512.87939453125L449.078857421875,476.333251953125L485.5762939453125,512.87939453125ZM700.60546875,467.498291015625L586.7418212890625,439.014404296875L558.258544921875,325.1517333984375C628.6739501953125,342.10107421875,683.657470703125,397.081298828125,700.60546875,467.498291015625M549.4239501953125,449.031982421875L512.8785400390625,485.578125L476.333251953125,449.031982421875L512.8785400390625,302.8720703125ZM467.4949951171875,325.1517333984375L439.01171875,439.014404296875L325.1517333984375,467.498291015625C342.099853515625,397.081298828125,397.07958984375,342.10107421875,467.4949951171875,325.1517333984375M325.078125,558.259765625L439.01171875,586.74365234375L467.4949951171875,700.6064453125C397.07958984375,683.657958984375,342.099853515625,628.677734375,325.1517333984375,558.259765625ZM476.2596435546875,576.72607421875L512.8785400390625,540.1806640625L549.4239501953125,576.72607421875L512.8785400390625,722.886474609375ZM558.1885986328125,700.6064453125L586.671875,586.74365234375L700.5318603515625,558.259765625C683.594970703125,628.657470703125,628.648193359375,683.63427734375,558.258544921875,700.6064453125Z" style="fill: rgb(248, 250, 252); fill-opacity: 1;"/></g></g></g></g></g></g></g></g></g></svg>